<?xml version="1.0" encoding="UTF-8" standalone="no"?>
<svg
   width="300"
   height="193.05817"
   version="1.1"
   id="svg241"
   sodipodi:docname="Dia01.svg"
   inkscape:version="1.1 (c68e22c387, 2021-05-23)"
   xmlns:inkscape="http://www.inkscape.org/namespaces/inkscape"
   xmlns:sodipodi="http://sodipodi.sourceforge.net/DTD/sodipodi-0.dtd"
   xmlns:xlink="http://www.w3.org/1999/xlink"
   xmlns="http://www.w3.org/2000/svg"
   xmlns:svg="http://www.w3.org/2000/svg"
   xmlns:lucid="lucid">
  <defs
     id="defs245" />
  <sodipodi:namedview
     id="namedview243"
     pagecolor="#505050"
     bordercolor="#eeeeee"
     borderopacity="1"
     inkscape:pageshadow="0"
     inkscape:pageopacity="0"
     inkscape:pagecheckerboard="0"
     showgrid="false"
     inkscape:zoom="0.69128992"
     inkscape:cx="-212.64595"
     inkscape:cy="298.71693"
     inkscape:window-width="1920"
     inkscape:window-height="1000"
     inkscape:window-x="-11"
     inkscape:window-y="-11"
     inkscape:window-maximized="1"
     inkscape:current-layer="g239"
     fit-margin-top="0"
     fit-margin-left="0"
     fit-margin-right="0"
     fit-margin-bottom="0" />
  <g
     transform="translate(-208.5,-18.5)"
     lucid:page-tab-id="0_0"
     id="g239">
    <g
       id="g978"
       transform="matrix(0.56285178,0,0,0.56285178,91.145403,8.087242)">
      <path
         d="m 220,26 c 0,-3.3 2.7,-6 6,-6 h 108 c 3.3,0 6,2.7 6,6 v 28 c 0,3.3 -2.7,6 -6,6 H 226 c -3.3,0 -6,-2.7 -6,-6 z"
         stroke="#5e5e5e"
         stroke-width="3"
         fill="#ffffff"
         id="path4" />
      <use
         xlink:href="#a"
         transform="translate(235.70988,49.777778)"
         id="use6"
         x="0"
         y="0"
         width="100%"
         height="100%" />
      <path
         d="m 380,106 c 0,-3.3 2.7,-6 6,-6 h 108 c 3.3,0 6,2.7 6,6 v 28 c 0,3.3 -2.7,6 -6,6 H 386 c -3.3,0 -6,-2.7 -6,-6 z"
         stroke="#5e5e5e"
         stroke-width="3"
         fill="#ffffff"
         id="path8" />
      <use
         xlink:href="#b"
         transform="translate(388.64198,129.77778)"
         id="use10"
         x="0"
         y="0"
         width="100%"
         height="100%" />
      <path
         d="m 220,146 c 0,-3.3 2.7,-6 6,-6 h 108 c 3.3,0 6,2.7 6,6 v 28 c 0,3.3 -2.7,6 -6,6 H 226 c -3.3,0 -6,-2.7 -6,-6 z"
         stroke="#5e5e5e"
         stroke-width="3"
         fill="#ffffff"
         id="path12" />
      <use
         xlink:href="#c"
         transform="translate(236.85185,169.77778)"
         id="use14"
         x="0"
         y="0"
         width="100%"
         height="100%" />
      <path
         d="m 210,226 c 0,-3.3 2.7,-6 6,-6 h 128 c 3.3,0 6,2.7 6,6 v 28 c 0,3.3 -2.7,6 -6,6 H 216 c -3.3,0 -6,-2.7 -6,-6 z"
         stroke="#5e5e5e"
         stroke-width="3"
         fill="#ffffff"
         id="path16" />
      <use
         xlink:href="#d"
         transform="translate(228.17901,249.77778)"
         id="use18"
         x="0"
         y="0"
         width="100%"
         height="100%" />
      <path
         d="m 540,166 c 0,-3.3 2.7,-6 6,-6 h 108 c 3.3,0 6,2.7 6,6 v 28 c 0,3.3 -2.7,6 -6,6 H 546 c -3.3,0 -6,-2.7 -6,-6 z"
         stroke="#5e5e5e"
         stroke-width="3"
         fill="#ffffff"
         id="path20" />
      <use
         xlink:href="#e"
         transform="translate(550.06173,189.77778)"
         id="use22"
         x="0"
         y="0"
         width="100%"
         height="100%" />
      <path
         d="m 540,226 c 0,-3.3 2.7,-6 6,-6 h 108 c 3.3,0 6,2.7 6,6 v 28 c 0,3.3 -2.7,6 -6,6 H 546 c -3.3,0 -6,-2.7 -6,-6 z"
         stroke="#5e5e5e"
         stroke-width="3"
         fill="#ffffff"
         id="path24" />
      <use
         xlink:href="#a"
         transform="translate(555.70988,249.77778)"
         id="use26"
         x="0"
         y="0"
         width="100%"
         height="100%" />
      <path
         d="M 280,217.5 V 200"
         stroke="#5e5e5e"
         stroke-width="2"
         fill="none"
         id="path28" />
      <path
         d="m 281,218.5 h -2 v -1.03 h 2"
         fill="#5e5e5e"
         id="path30" />
      <path
         d="m 280,184.74 4.64,14.26 h -9.28 z"
         stroke="#5e5e5e"
         stroke-width="2"
         fill="#5e5e5e"
         id="path32" />
      <path
         d="m 280,262.5 v 19"
         stroke="#5e5e5e"
         stroke-width="2"
         fill="none"
         id="path34" />
      <path
         d="m 281,262.53 h -2 v -1.03 h 2"
         fill="#5e5e5e"
         id="path36" />
      <path
         d="m 280,296.76 -4.64,-14.26 h 9.28 z"
         stroke="#5e5e5e"
         stroke-width="2"
         fill="#5e5e5e"
         id="path38" />
      <path
         d="M 502.5,120 H 594 c 3.3,0 6,2.7 6,6 v 14"
         stroke="#5e5e5e"
         stroke-width="2"
         fill="none"
         id="path40" />
      <path
         d="m 502.53,121 h -1.03 v -2 h 1.03"
         fill="#5e5e5e"
         id="path42" />
      <path
         d="M 600,155.26 595.36,141 h 9.28 z"
         stroke="#5e5e5e"
         stroke-width="2"
         fill="#5e5e5e"
         id="path44" />
      <path
         d="M 352.5,240 H 434 c 3.3,0 6,-2.7 6,-6 v -74"
         stroke="#5e5e5e"
         stroke-width="2"
         fill="none"
         id="path46" />
      <path
         d="m 352.53,241 h -1.03 v -2 h 1.03"
         fill="#5e5e5e"
         id="path48" />
      <path
         d="m 440,144.74 4.64,14.26 h -9.28 z"
         stroke="#5e5e5e"
         stroke-width="2"
         fill="#5e5e5e"
         id="path50" />
      <path
         d="m 662.5,180 h 33 c 3.3,0 6,2.7 6,6 v 49.64 c 0,3.3 -2.7,6 -6,6 H 680"
         stroke="#5e5e5e"
         stroke-width="2"
         fill="none"
         id="path52" />
      <path
         d="m 662.53,181 h -1.03 v -2 h 1.03"
         fill="#5e5e5e"
         id="path54" />
      <path
         d="M 664.74,241.64 679,237 v 9.28 z"
         stroke="#5e5e5e"
         stroke-width="2"
         fill="#5e5e5e"
         id="path56" />
      <path
         d="M 280,62.5 V 120"
         stroke="#5e5e5e"
         stroke-width="2"
         fill="none"
         id="path58" />
      <path
         d="m 281,62.53 h -2 V 61.5 h 2"
         fill="#5e5e5e"
         id="path60" />
      <path
         d="M 280,135.26 275.36,121 h 9.28 z"
         stroke="#5e5e5e"
         stroke-width="2"
         fill="#5e5e5e"
         id="path62" />
      <path
         d="m 600,262.5 v 29"
         stroke="#5e5e5e"
         stroke-width="2"
         fill="none"
         id="path64" />
      <path
         d="m 601,262.53 h -2 v -1.03 h 2"
         fill="#5e5e5e"
         id="path66" />
      <path
         d="m 600,306.76 -4.64,-14.26 h 9.28 z"
         stroke="#5e5e5e"
         stroke-width="2"
         fill="#5e5e5e"
         id="path68" />
      <path
         d="M 660.43,161.1 H 714 c 3.3,0 6,2.7 6,6 v 124.4"
         stroke="#5e5e5e"
         stroke-width="2"
         fill="none"
         id="path70" />
      <path
         d="m 660.45,162.1 h -0.02 l -2,-2 h 2.02"
         fill="#5e5e5e"
         id="path72" />
      <path
         d="m 720,306.76 -4.64,-14.26 h 9.28 z"
         stroke="#5e5e5e"
         stroke-width="2"
         fill="#5e5e5e"
         id="path74" />
      <path
         d="m 250,306 c 0,-3.3 2.7,-6 6,-6 h 48 c 3.3,0 6,2.7 6,6 v 48 c 0,3.3 -2.7,6 -6,6 h -48 c -3.3,0 -6,-2.7 -6,-6 z"
         stroke="#000000"
         stroke-opacity="0"
         stroke-width="3"
         fill="#ffffff"
         fill-opacity="0"
         id="path76" />
      <use
         xlink:href="#f"
         transform="translate(260.19136,335.27778)"
         id="use78"
         x="0"
         y="0"
         width="100%"
         height="100%" />
      <path
         d="m 570,316 c 0,-3.3 2.7,-6 6,-6 h 48 c 3.3,0 6,2.7 6,6 v 28 c 0,3.3 -2.7,6 -6,6 h -48 c -3.3,0 -6,-2.7 -6,-6 z"
         stroke="#000000"
         stroke-opacity="0"
         stroke-width="3"
         fill="#ffffff"
         fill-opacity="0"
         id="path80" />
      <use
         xlink:href="#g"
         transform="translate(583.24691,334.65278)"
         id="use82"
         x="0"
         y="0"
         width="100%"
         height="100%" />
      <path
         d="m 700,316 c 0,-3.3 2.7,-6 6,-6 h 28 c 3.3,0 6,2.7 6,6 v 28 c 0,3.3 -2.7,6 -6,6 h -28 c -3.3,0 -6,-2.7 -6,-6 z"
         stroke="#000000"
         stroke-opacity="0"
         stroke-width="3"
         fill="#ffffff"
         fill-opacity="0"
         id="path84" />
      <use
         xlink:href="#h"
         transform="translate(702.12963,334.44444)"
         id="use86"
         x="0"
         y="0"
         width="100%"
         height="100%" />
      <path
         d="M 440,142.5 V 234 c 0,3.3 2.7,6 6,6 h 74"
         stroke="#5e5e5e"
         stroke-width="2"
         fill="none"
         id="path88" />
      <path
         d="m 441,142.53 h -2 v -1.03 h 2"
         fill="#5e5e5e"
         id="path90" />
      <path
         d="M 535.26,240 521,244.64 v -9.28 z"
         stroke="#5e5e5e"
         stroke-width="2"
         fill="#5e5e5e"
         id="path92" />
    </g>
    <defs
       id="defs237">
      <path
         fill="#333333"
         d="m 212,-179 c -10,-28 -35,-45 -73,-45 -59,0 -87,40 -87,99 0,60 29,101 89,101 43,0 62,-24 78,-52 l 27,14 C 228,-24 195,4 139,4 59,4 22,-46 18,-125 c -6,-104 99,-153 187,-111 19,9 31,26 39,46"
         id="i" />
      <path
         fill="#333333"
         d="m 100,-194 c 62,-1 85,37 85,99 1,63 -27,99 -86,99 -59,0 -83,-39 -84,-99 0,-66 28,-99 85,-99 z m -1,174 c 44,1 53,-31 53,-75 0,-43 -8,-75 -51,-75 -43,0 -53,32 -53,75 0,43 10,74 51,75"
         id="j" />
      <path
         fill="#333333"
         d="m 210,-169 c -67,3 -38,105 -44,169 h -31 v -121 c 0,-29 -5,-50 -35,-48 C 34,-165 62,-65 56,0 H 25 l -1,-190 h 30 c 1,10 -1,24 2,32 10,-44 99,-50 107,0 11,-21 27,-35 58,-36 85,-2 47,119 55,194 h -31 v -121 c 0,-29 -5,-49 -35,-48"
         id="k" />
      <path
         fill="#333333"
         d="m 115,-194 c 55,1 70,41 70,98 C 185,-39 169,2 115,4 84,4 66,-9 55,-30 L 56,75 H 24 l -1,-265 h 31 l 2,30 c 10,-21 28,-34 59,-34 z m -8,174 c 40,0 45,-34 45,-75 0,-41 -6,-73 -45,-74 -42,0 -51,32 -51,76 0,43 10,73 51,73"
         id="l" />
      <path
         fill="#333333"
         d="m 24,-231 v -30 h 32 v 30 z M 24,0 V -190 H 56 V 0 H 24"
         id="m" />
      <path
         fill="#333333"
         d="M 24,0 V -261 H 56 V 0 H 24"
         id="n" />
      <path
         fill="#333333"
         d="m 100,-194 c 63,0 86,42 84,106 H 49 c 0,40 14,67 53,68 26,1 43,-12 49,-29 l 28,8 C 168,-13 142,4 102,4 44,4 14,-33 15,-96 c 1,-61 26,-98 85,-98 z m 52,81 c 6,-60 -76,-77 -97,-28 -3,7 -6,17 -6,28 h 103"
         id="o" />
      <path
         fill="#333333"
         d="M 114,-163 C 36,-179 61,-72 57,0 H 25 l -1,-190 h 30 c 1,12 -1,29 2,39 6,-27 23,-49 58,-41 v 29"
         id="p" />
      <g
         id="a">
        <use
           transform="scale(0.0617284)"
           xlink:href="#i"
           id="use102"
           x="0"
           y="0"
           width="100%"
           height="100%" />
        <use
           transform="matrix(0.0617284,0,0,0.0617284,15.987654,0)"
           xlink:href="#j"
           id="use104"
           x="0"
           y="0"
           width="100%"
           height="100%" />
        <use
           transform="matrix(0.0617284,0,0,0.0617284,28.333333,0)"
           xlink:href="#k"
           id="use106"
           x="0"
           y="0"
           width="100%"
           height="100%" />
        <use
           transform="matrix(0.0617284,0,0,0.0617284,46.790123,0)"
           xlink:href="#l"
           id="use108"
           x="0"
           y="0"
           width="100%"
           height="100%" />
        <use
           transform="matrix(0.0617284,0,0,0.0617284,59.135802,0)"
           xlink:href="#m"
           id="use110"
           x="0"
           y="0"
           width="100%"
           height="100%" />
        <use
           transform="matrix(0.0617284,0,0,0.0617284,64.012346,0)"
           xlink:href="#n"
           id="use112"
           x="0"
           y="0"
           width="100%"
           height="100%" />
        <use
           transform="matrix(0.0617284,0,0,0.0617284,68.888889,0)"
           xlink:href="#o"
           id="use114"
           x="0"
           y="0"
           width="100%"
           height="100%" />
        <use
           transform="matrix(0.0617284,0,0,0.0617284,81.234568,0)"
           xlink:href="#p"
           id="use116"
           x="0"
           y="0"
           width="100%"
           height="100%" />
      </g>
      <path
         fill="#333333"
         d="m 30,-248 c 87,1 191,-15 191,75 0,78 -77,80 -158,76 V 0 H 30 Z m 33,125 c 57,0 124,11 124,-50 0,-59 -68,-47 -124,-48 v 98"
         id="q" />
      <path
         fill="#333333"
         d="M 141,-36 C 126,-15 110,5 73,4 37,3 15,-17 15,-53 c -1,-64 63,-63 125,-63 3,-35 -9,-54 -41,-54 -24,1 -41,7 -42,31 l -33,-3 c 5,-37 33,-52 76,-52 45,0 72,20 72,64 v 82 c -1,20 7,32 28,27 V -1 C 169,8 139,-3 141,-36 Z M 48,-53 c 0,20 12,33 32,33 41,-3 63,-29 60,-74 -43,2 -92,-5 -92,41"
         id="r" />
      <path
         fill="#333333"
         d="m 135,-143 c -3,-34 -86,-38 -87,0 15,53 115,12 119,90 4,78 -150,74 -157,8 l 28,-5 c 4,36 97,45 98,0 -10,-56 -113,-15 -118,-90 -4,-57 82,-63 122,-42 12,7 21,19 24,35"
         id="s" />
      <path
         fill="#333333"
         d="M 127,-220 V 0 H 93 V -220 H 8 v -28 h 204 v 28 h -85"
         id="t" />
      <g
         id="b">
        <use
           transform="scale(0.0617284)"
           xlink:href="#q"
           id="use123"
           x="0"
           y="0"
           width="100%"
           height="100%" />
        <use
           transform="matrix(0.0617284,0,0,0.0617284,14.814815,0)"
           xlink:href="#r"
           id="use125"
           x="0"
           y="0"
           width="100%"
           height="100%" />
        <use
           transform="matrix(0.0617284,0,0,0.0617284,27.160494,0)"
           xlink:href="#p"
           id="use127"
           x="0"
           y="0"
           width="100%"
           height="100%" />
        <use
           transform="matrix(0.0617284,0,0,0.0617284,34.506173,0)"
           xlink:href="#s"
           id="use129"
           x="0"
           y="0"
           width="100%"
           height="100%" />
        <use
           transform="matrix(0.0617284,0,0,0.0617284,45.617284,0)"
           xlink:href="#o"
           id="use131"
           x="0"
           y="0"
           width="100%"
           height="100%" />
        <use
           transform="matrix(0.0617284,0,0,0.0617284,57.962963,0)"
           xlink:href="#t"
           id="use133"
           x="0"
           y="0"
           width="100%"
           height="100%" />
        <use
           transform="matrix(0.0617284,0,0,0.0617284,70.679012,0)"
           xlink:href="#p"
           id="use135"
           x="0"
           y="0"
           width="100%"
           height="100%" />
        <use
           transform="matrix(0.0617284,0,0,0.0617284,78.024691,0)"
           xlink:href="#o"
           id="use137"
           x="0"
           y="0"
           width="100%"
           height="100%" />
        <use
           transform="matrix(0.0617284,0,0,0.0617284,90.37037,0)"
           xlink:href="#o"
           id="use139"
           x="0"
           y="0"
           width="100%"
           height="100%" />
      </g>
      <path
         fill="#333333"
         d="M 205,0 177,-72 H 64 L 36,0 H 1 l 101,-248 h 38 L 239,0 Z m -38,-99 -47,-123 c -12,45 -31,82 -46,123 h 93"
         id="u" />
      <path
         fill="#333333"
         d="m 117,-194 c 89,-4 53,116 60,194 h -32 v -121 c 0,-31 -8,-49 -39,-48 C 34,-167 62,-67 57,0 H 25 l -1,-190 h 30 c 1,10 -1,24 2,32 11,-22 29,-35 61,-36"
         id="v" />
      <path
         fill="#333333"
         d="M 179,-190 93,31 C 79,59 56,82 12,73 V 49 C 51,55 65,29 76,-1 L 1,-190 h 34 l 57,156 54,-156 h 33"
         id="w" />
      <path
         fill="#333333"
         d="M 9,0 V -24 L 125,-166 H 16 v -24 h 144 v 24 L 44,-24 H 167 V 0 H 9"
         id="x" />
      <g
         id="c">
        <use
           transform="scale(0.0617284)"
           xlink:href="#u"
           id="use146"
           x="0"
           y="0"
           width="100%"
           height="100%" />
        <use
           transform="matrix(0.0617284,0,0,0.0617284,14.814815,0)"
           xlink:href="#v"
           id="use148"
           x="0"
           y="0"
           width="100%"
           height="100%" />
        <use
           transform="matrix(0.0617284,0,0,0.0617284,27.160494,0)"
           xlink:href="#r"
           id="use150"
           x="0"
           y="0"
           width="100%"
           height="100%" />
        <use
           transform="matrix(0.0617284,0,0,0.0617284,39.506173,0)"
           xlink:href="#n"
           id="use152"
           x="0"
           y="0"
           width="100%"
           height="100%" />
        <use
           transform="matrix(0.0617284,0,0,0.0617284,44.382716,0)"
           xlink:href="#w"
           id="use154"
           x="0"
           y="0"
           width="100%"
           height="100%" />
        <use
           transform="matrix(0.0617284,0,0,0.0617284,55.493827,0)"
           xlink:href="#x"
           id="use156"
           x="0"
           y="0"
           width="100%"
           height="100%" />
        <use
           transform="matrix(0.0617284,0,0,0.0617284,66.604938,0)"
           xlink:href="#o"
           id="use158"
           x="0"
           y="0"
           width="100%"
           height="100%" />
        <use
           transform="matrix(0.0617284,0,0,0.0617284,78.950617,0)"
           xlink:href="#p"
           id="use160"
           x="0"
           y="0"
           width="100%"
           height="100%" />
      </g>
      <path
         fill="#333333"
         d="M 153,-248 C 145,-148 188,4 80,4 36,3 13,-21 6,-62 l 32,-5 c 4,25 16,42 43,43 27,0 39,-20 39,-49 V -220 H 72 v -28 h 81"
         id="y" />
      <path
         fill="#333333"
         d="m 96,-169 c -40,0 -48,33 -48,73 0,40 9,75 48,75 24,0 41,-14 43,-38 l 32,2 C 165,-20 140,4 97,4 38,4 21,-37 15,-95 c -10,-93 101,-131 147,-64 4,7 5,14 7,22 l -32,3 c -4,-21 -16,-35 -41,-35"
         id="z" />
      <path
         fill="#333333"
         d="M 143,0 79,-87 56,-68 V 0 H 24 v -261 h 32 v 163 l 83,-92 h 37 l -77,82 82,108 h -38"
         id="A" />
      <path
         fill="#333333"
         d="m 101,-251 c 82,-7 93,87 43,132 L 82,-64 C 71,-53 59,-42 53,-27 H 182 V 0 H 18 c 2,-99 128,-94 128,-182 0,-28 -16,-43 -45,-43 -29,0 -46,15 -49,41 l -32,-3 c 6,-41 34,-60 81,-64"
         id="B" />
      <path
         fill="#333333"
         d="M 195,0 121,-108 45,0 H 8 l 94,-129 -87,-119 h 37 l 69,98 67,-98 h 37 l -84,118 92,130 h -38"
         id="C" />
      <path
         fill="#333333"
         d="m 240,0 2,-218 C 219,-142 188,-73 162,0 H 139 L 58,-218 59,0 H 30 v -248 h 44 l 77,211 c 21,-75 51,-140 76,-211 h 43 V 0 h -30"
         id="D" />
      <path
         fill="#333333"
         d="M 30,0 V -248 H 63 V -27 H 188 V 0 H 30"
         id="E" />
      <g
         id="d">
        <use
           transform="scale(0.0617284)"
           xlink:href="#y"
           id="use170"
           x="0"
           y="0"
           width="100%"
           height="100%" />
        <use
           transform="matrix(0.0617284,0,0,0.0617284,11.111111,0)"
           xlink:href="#r"
           id="use172"
           x="0"
           y="0"
           width="100%"
           height="100%" />
        <use
           transform="matrix(0.0617284,0,0,0.0617284,23.45679,0)"
           xlink:href="#z"
           id="use174"
           x="0"
           y="0"
           width="100%"
           height="100%" />
        <use
           transform="matrix(0.0617284,0,0,0.0617284,34.567901,0)"
           xlink:href="#A"
           id="use176"
           x="0"
           y="0"
           width="100%"
           height="100%" />
        <use
           transform="matrix(0.0617284,0,0,0.0617284,45.679012,0)"
           xlink:href="#B"
           id="use178"
           x="0"
           y="0"
           width="100%"
           height="100%" />
        <use
           transform="matrix(0.0617284,0,0,0.0617284,58.024691,0)"
           xlink:href="#C"
           id="use180"
           x="0"
           y="0"
           width="100%"
           height="100%" />
        <use
           transform="matrix(0.0617284,0,0,0.0617284,72.839506,0)"
           xlink:href="#D"
           id="use182"
           x="0"
           y="0"
           width="100%"
           height="100%" />
        <use
           transform="matrix(0.0617284,0,0,0.0617284,91.296296,0)"
           xlink:href="#E"
           id="use184"
           x="0"
           y="0"
           width="100%"
           height="100%" />
      </g>
      <path
         fill="#333333"
         d="M 143,4 C 61,4 22,-44 18,-125 c -5,-107 100,-154 193,-111 17,8 29,25 37,43 l -32,9 c -13,-25 -37,-40 -76,-40 -61,0 -88,39 -88,99 0,61 29,100 91,101 35,0 62,-11 79,-27 v -45 h -74 v -28 h 105 v 86 C 228,-13 192,4 143,4"
         id="F" />
      <path
         fill="#333333"
         d="m 59,-47 c -2,24 18,29 38,22 V -1 C 64,9 27,4 27,-40 V -167 H 5 v -23 h 24 l 9,-43 h 21 v 43 h 35 v 23 H 59 v 120"
         id="G" />
      <g
         id="e">
        <use
           transform="scale(0.0617284)"
           xlink:href="#F"
           id="use189"
           x="0"
           y="0"
           width="100%"
           height="100%" />
        <use
           transform="matrix(0.0617284,0,0,0.0617284,17.283951,0)"
           xlink:href="#o"
           id="use191"
           x="0"
           y="0"
           width="100%"
           height="100%" />
        <use
           transform="matrix(0.0617284,0,0,0.0617284,29.62963,0)"
           xlink:href="#v"
           id="use193"
           x="0"
           y="0"
           width="100%"
           height="100%" />
        <use
           transform="matrix(0.0617284,0,0,0.0617284,41.975309,0)"
           xlink:href="#o"
           id="use195"
           x="0"
           y="0"
           width="100%"
           height="100%" />
        <use
           transform="matrix(0.0617284,0,0,0.0617284,54.320988,0)"
           xlink:href="#p"
           id="use197"
           x="0"
           y="0"
           width="100%"
           height="100%" />
        <use
           transform="matrix(0.0617284,0,0,0.0617284,61.666667,0)"
           xlink:href="#r"
           id="use199"
           x="0"
           y="0"
           width="100%"
           height="100%" />
        <use
           transform="matrix(0.0617284,0,0,0.0617284,74.012346,0)"
           xlink:href="#G"
           id="use201"
           x="0"
           y="0"
           width="100%"
           height="100%" />
        <use
           transform="matrix(0.0617284,0,0,0.0617284,80.185185,0)"
           xlink:href="#j"
           id="use203"
           x="0"
           y="0"
           width="100%"
           height="100%" />
        <use
           transform="matrix(0.0617284,0,0,0.0617284,92.530864,0)"
           xlink:href="#p"
           id="use205"
           x="0"
           y="0"
           width="100%"
           height="100%" />
      </g>
      <path
         fill="#333333"
         d="M 33,0 V -38 H 67 V 0 H 33"
         id="H" />
      <path
         fill="#333333"
         d="M 141,0 90,-78 38,0 H 4 L 72,-98 7,-190 h 35 l 48,74 47,-74 h 35 l -64,92 68,98 h -35"
         id="I" />
      <g
         id="f">
        <use
           transform="scale(0.0617284)"
           xlink:href="#H"
           id="use210"
           x="0"
           y="0"
           width="100%"
           height="100%" />
        <use
           transform="matrix(0.0617284,0,0,0.0617284,6.1728395,0)"
           xlink:href="#I"
           id="use212"
           x="0"
           y="0"
           width="100%"
           height="100%" />
        <use
           transform="matrix(0.0617284,0,0,0.0617284,17.283951,0)"
           xlink:href="#k"
           id="use214"
           x="0"
           y="0"
           width="100%"
           height="100%" />
        <use
           transform="matrix(0.0617284,0,0,0.0617284,35.740741,0)"
           xlink:href="#n"
           id="use216"
           x="0"
           y="0"
           width="100%"
           height="100%" />
      </g>
      <path
         fill="#333333"
         d="m 24,-231 v -30 h 32 v 30 z M -9,49 C 15,53 24,43 24,19 V -190 H 56 V 24 C 58,64 33,82 -9,73 V 49"
         id="J" />
      <g
         id="g">
        <use
           transform="scale(0.0617284)"
           xlink:href="#H"
           id="use220"
           x="0"
           y="0"
           width="100%"
           height="100%" />
        <use
           transform="matrix(0.0617284,0,0,0.0617284,6.1728395,0)"
           xlink:href="#J"
           id="use222"
           x="0"
           y="0"
           width="100%"
           height="100%" />
        <use
           transform="matrix(0.0617284,0,0,0.0617284,11.049383,0)"
           xlink:href="#o"
           id="use224"
           x="0"
           y="0"
           width="100%"
           height="100%" />
        <use
           transform="matrix(0.0617284,0,0,0.0617284,23.395062,0)"
           xlink:href="#I"
           id="use226"
           x="0"
           y="0"
           width="100%"
           height="100%" />
      </g>
      <path
         fill="#333333"
         d="M 108,0 H 70 L 1,-190 h 34 l 54,165 56,-165 h 34"
         id="K" />
      <g
         id="h">
        <use
           transform="scale(0.0617284)"
           xlink:href="#H"
           id="use230"
           x="0"
           y="0"
           width="100%"
           height="100%" />
        <use
           transform="matrix(0.0617284,0,0,0.0617284,6.1728395,0)"
           xlink:href="#K"
           id="use232"
           x="0"
           y="0"
           width="100%"
           height="100%" />
        <use
           transform="matrix(0.0617284,0,0,0.0617284,17.283951,0)"
           xlink:href="#k"
           id="use234"
           x="0"
           y="0"
           width="100%"
           height="100%" />
      </g>
    </defs>
  </g>
</svg>
