<?xml version="1.0" encoding="UTF-8" standalone="no"?>
<!-- Created with Inkscape (http://www.inkscape.org/) -->

<svg
   width="24"
   height="24"
   viewBox="0 0 6.3499999 6.3500002"
   version="1.1"
   id="svg22"
   inkscape:version="1.1 (c68e22c387, 2021-05-23)"
   sodipodi:docname="GH.svg"
   xmlns:inkscape="http://www.inkscape.org/namespaces/inkscape"
   xmlns:sodipodi="http://sodipodi.sourceforge.net/DTD/sodipodi-0.dtd"
   xmlns="http://www.w3.org/2000/svg"
   xmlns:svg="http://www.w3.org/2000/svg">
  <sodipodi:namedview
     id="namedview24"
     pagecolor="#505050"
     bordercolor="#eeeeee"
     borderopacity="1"
     inkscape:pageshadow="0"
     inkscape:pageopacity="0"
     inkscape:pagecheckerboard="0"
     inkscape:document-units="mm"
     showgrid="false"
     units="px"
     inkscape:zoom="21.18092"
     inkscape:cx="7.1762699"
     inkscape:cy="12.109955"
     inkscape:window-width="1920"
     inkscape:window-height="1000"
     inkscape:window-x="-11"
     inkscape:window-y="-11"
     inkscape:window-maximized="1"
     inkscape:current-layer="layer1" />
  <defs
     id="defs19" />
  <g
     inkscape:label="Layer 1"
     inkscape:groupmode="layer"
     id="layer1">
    <path
       style="fill:#000000;stroke-width:0.0103451"
       d="M 2.9428113,5.8144963 C 2.616396,5.7839966 2.3111558,5.697622 2.0118989,5.551056 1.3225356,5.2134159 0.80331307,4.5785522 0.61658896,3.8449641 0.51552277,3.4479492 0.50278117,3.099276 0.57475584,2.6998362 0.65017214,2.2812716 0.82545464,1.89069 1.094495,1.54185 1.1829529,1.4271589 1.4282935,1.1816017 1.5428845,1.0930604 1.7466503,0.93562785 2.0141574,0.78432856 2.2402896,0.69862897 2.6525209,0.54238805 3.1254269,0.49171328 3.5632749,0.55685465 4.6799114,0.72299551 5.5712654,1.5854498 5.7766727,2.6984862 5.9111055,3.4269328 5.7360064,4.1675709 5.2869667,4.7697848 5.1720424,4.923909 4.9219352,5.1742328 4.7679526,5.2892572 4.3105797,5.6308972 3.8018155,5.8073048 3.2375515,5.819888 3.1323353,5.822388 2.9997194,5.819813 2.9428446,5.814888 Z M 2.5391715,5.3657152 c 0.06175,-0.025833 0.067582,-0.050832 0.067582,-0.2909235 v -0.213499 l -0.0315,0.00667 c -0.07075,0.015583 -0.2132155,0.0225 -0.2938569,0.014333 C 2.1250235,4.8664592 1.982399,4.7953679 1.9008913,4.6927268 1.8779746,4.6638102 1.836808,4.5924439 1.8094999,4.5341108 1.7345836,4.3740949 1.6669673,4.2857453 1.5748511,4.2275457 1.5332679,4.2012957 1.4691766,4.1417379 1.4694432,4.1296546 c 8.167e-4,-0.03575 0.074916,-0.056167 0.1515743,-0.041833 0.1223078,0.022833 0.2223905,0.098808 0.3181984,0.2414572 0.085117,0.1267244 0.1672409,0.191199 0.2833905,0.2225073 0.1307325,0.03525 0.3944813,-0.012667 0.3944813,-0.071667 0,-0.024917 0.049083,-0.1621909 0.070417,-0.1968573 0.00883,-0.014333 0.030083,-0.041167 0.047167,-0.059667 0.017167,-0.0185 0.026083,-0.033667 0.019833,-0.033667 -0.036583,0 -0.2602155,-0.0445 -0.3390735,-0.067417 C 2.1088318,4.0332466 1.8960163,3.8526808 1.7899584,3.591832 1.708292,3.3909079 1.6756673,3.0921677 1.7123754,2.8812103 1.7389586,2.728811 1.8120666,2.5699868 1.904391,2.464254 1.933558,2.430837 1.933558,2.430504 1.917141,2.386587 1.895808,2.32967 1.886808,2.10603 1.902474,2.0216388 c 0.00667,-0.034167 0.021417,-0.093532 0.0335,-0.1319577 l 0.022,-0.069832 h 0.05375 c 0.1172,0 0.3045819,0.070082 0.4963644,0.1855825 l 0.083982,0.050582 0.080167,-0.019083 c 0.1972991,-0.047083 0.2753071,-0.05575 0.503006,-0.055917 0.2300823,-2.333e-4 0.3205652,0.00991 0.5087727,0.057167 l 0.079667,0.02 0.065167,-0.042417 C 3.9999396,1.9043982 4.2198553,1.8199153 4.3386379,1.8199153 h 0.053582 l 0.030083,0.095732 c 0.028083,0.089367 0.03,0.1067666 0.029667,0.2613321 -3.084e-4,0.129541 -0.00417,0.1751991 -0.017667,0.209699 l -0.01725,0.044083 0.02925,0.0335 c 0.082332,0.09435 0.1576742,0.2482822 0.1885157,0.3854149 0.02025,0.09005 0.017167,0.3783649 -0.005,0.496781 -0.02075,0.10945 -0.061,0.2378072 -0.097217,0.3104984 -0.1113662,0.223349 -0.3176652,0.3842399 -0.5969805,0.4655646 -0.077917,0.022667 -0.302357,0.067417 -0.3382401,0.067417 -0.00583,0 0.00583,0.018417 0.026417,0.040917 0.045,0.049917 0.07175,0.1008 0.09545,0.1820409 0.01525,0.052167 0.018917,0.1253243 0.024167,0.476131 0.00583,0.3756232 0.0075,0.4171398 0.02475,0.4429147 0.050832,0.077582 0.143341,0.06175 0.4156731,-0.071167 C 5.2379419,4.7462266 5.7414646,3.5391906 5.3665914,2.4254959 5.0843094,1.5868748 4.3463463,0.9847276 3.4629005,0.87217815 3.2922846,0.85042825 2.9554695,0.85609489 2.8033703,0.88326144 2.4696218,0.94284448 2.1768815,1.0578773 1.908916,1.2346681 1.7632585,1.3307593 1.6841338,1.394484 1.5638594,1.5125668 1.3612188,1.7115159 1.2145195,1.9137899 1.0970533,2.1562138 0.93154579,2.4977956 0.86487945,2.7909608 0.86525445,3.1756672 c 2.3333e-4,0.2406824 0.0157499,0.3676399 0.0714997,0.5843889 0.18620745,0.7239967 0.73087145,1.3292605 1.43039325,1.5895341 0.0906,0.03375 0.1224736,0.036667 0.1721656,0.015833 z"
       id="path76" />
  </g>
</svg>
